<?xml version="1.0" encoding="UTF-8"?>
<svg xmlns="http://www.w3.org/2000/svg" width="63mm" height="88mm" viewBox="0 0 630 880" role="img" aria-label="택배 사고!">
  <defs>
    <linearGradient id="bg" x1="0" y1="0" x2="1" y2="1">
      <stop offset="0%" stop-color="#fff1f2"/>
      <stop offset="100%" stop-color="#fecdd3"/>
    </linearGradient>
    <filter id="softShadow" x="-20%" y="-20%" width="140%" height="140%">
      <feDropShadow dx="0" dy="8" stdDeviation="8" flood-color="#000000" flood-opacity="0.14"/>
    </filter>
  </defs>
  <rect x="0" y="0" width="630" height="880" rx="8" fill="url(#bg)"/>
  <rect x="14" y="14" width="602" height="852" rx="8" fill="none" stroke="#111827" stroke-opacity="0.28" stroke-width="3" stroke-dasharray="12 8"/>
  <rect x="34" y="34" width="562" height="812" rx="8" fill="#ffffff" fill-opacity="0.72" filter="url(#softShadow)"/>
  <path d="M70 170 C140 80, 255 86, 310 154 S500 98, 554 210 L554 34 L70 34 Z" fill="#fda4af" opacity="0.42"/>
  <circle cx="315" cy="244" r="138" fill="#ffffff" fill-opacity="0.82"/>
  <circle cx="315" cy="244" r="116" fill="#fda4af" opacity="0.50"/>
  <text x="315" y="285" text-anchor="middle" font-size="104" font-family="Apple Color Emoji, Segoe UI Emoji, Noto Color Emoji, sans-serif">📦💥</text>
  <text x="64" y="94" font-size="29" font-weight="800" letter-spacing="0" fill="#e11d48" font-family="Malgun Gothic, Noto Sans KR, Arial, sans-serif">이벤트 카드</text>
  <rect x="410" y="58" width="142" height="52" rx="8" fill="#e11d48"/>
  <text x="481" y="93" text-anchor="middle" font-size="24" font-weight="800" letter-spacing="0" fill="#ffffff" font-family="Malgun Gothic, Noto Sans KR, Arial, sans-serif">위험 이벤트</text>
  <text x="315" y="430" text-anchor="middle" font-size="50" font-weight="800" letter-spacing="0" fill="#450a0a" font-family="Malgun Gothic, Noto Sans KR, Arial, sans-serif">택배 사고!</text>
  <text x="315" y="566" text-anchor="middle" font-size="32" font-weight="650" letter-spacing="0" fill="#9f1239" font-family="Malgun Gothic, Noto Sans KR, Arial, sans-serif">배송 중 물건이 파손되었습니다.</text>
  <text x="315" y="606" text-anchor="middle" font-size="32" font-weight="650" letter-spacing="0" fill="#9f1239" font-family="Malgun Gothic, Noto Sans KR, Arial, sans-serif">보유 물건 중 하나를 잃습니다.</text>
  <rect x="88" y="684" width="454" height="76" rx="8" fill="#e11d48" opacity="0.88"/>
  <text x="315" y="733" text-anchor="middle" font-size="32" font-weight="900" letter-spacing="0" fill="#ffffff" font-family="Malgun Gothic, Noto Sans KR, Arial, sans-serif">보유 물건 1개 손실</text>
  <line x1="94" y1="792" x2="536" y2="792" stroke="#e11d48" stroke-opacity="0.35" stroke-width="3"/>
  <text x="315" y="825" text-anchor="middle" font-size="24" font-weight="700" letter-spacing="0" fill="#9f1239" font-family="Malgun Gothic, Noto Sans KR, Arial, sans-serif">칸에 도착하면 즉시 적용</text>
</svg>
