<?xml version="1.0" encoding="UTF-8"?>
<svg xmlns="http://www.w3.org/2000/svg" width="63mm" height="88mm" viewBox="0 0 630 880" role="img" aria-label="어쿠스틱 기타">
  <defs>
    <linearGradient id="bg" x1="0" y1="0" x2="1" y2="1">
      <stop offset="0%" stop-color="#f8fafc"/>
      <stop offset="100%" stop-color="#e0f2fe"/>
    </linearGradient>
    <filter id="softShadow" x="-20%" y="-20%" width="140%" height="140%">
      <feDropShadow dx="0" dy="8" stdDeviation="8" flood-color="#000000" flood-opacity="0.14"/>
    </filter>
  </defs>
  <rect x="0" y="0" width="630" height="880" rx="8" fill="url(#bg)"/>
  <rect x="14" y="14" width="602" height="852" rx="8" fill="none" stroke="#111827" stroke-opacity="0.28" stroke-width="3" stroke-dasharray="12 8"/>
  <rect x="34" y="34" width="562" height="812" rx="8" fill="#ffffff" fill-opacity="0.72" filter="url(#softShadow)"/>
  <path d="M70 170 C140 80, 255 86, 310 154 S500 98, 554 210 L554 34 L70 34 Z" fill="#bae6fd" opacity="0.42"/>
  <circle cx="315" cy="244" r="138" fill="#ffffff" fill-opacity="0.82"/>
  <circle cx="315" cy="244" r="116" fill="#bae6fd" opacity="0.50"/>
  <text x="315" y="285" text-anchor="middle" font-size="132" font-family="Apple Color Emoji, Segoe UI Emoji, Noto Color Emoji, sans-serif">🎸</text>
  <text x="64" y="94" font-size="29" font-weight="800" letter-spacing="0" fill="#0284c7" font-family="Malgun Gothic, Noto Sans KR, Arial, sans-serif">아이템 카드</text>
  <rect x="410" y="58" width="142" height="52" rx="8" fill="#0284c7"/>
  <text x="481" y="93" text-anchor="middle" font-size="24" font-weight="800" letter-spacing="0" fill="#ffffff" font-family="Malgun Gothic, Noto Sans KR, Arial, sans-serif">취미</text>
  <text x="315" y="430" text-anchor="middle" font-size="50" font-weight="800" letter-spacing="0" fill="#111827" font-family="Malgun Gothic, Noto Sans KR, Arial, sans-serif">어쿠스틱 기타</text>
  <text x="315" y="566" text-anchor="middle" font-size="32" font-weight="650" letter-spacing="0" fill="#475569" font-family="Malgun Gothic, Noto Sans KR, Arial, sans-serif">취미 카테고리 중고거래</text>
  <text x="315" y="606" text-anchor="middle" font-size="32" font-weight="650" letter-spacing="0" fill="#475569" font-family="Malgun Gothic, Noto Sans KR, Arial, sans-serif">물건입니다.</text>
  <rect x="88" y="684" width="454" height="76" rx="8" fill="#0284c7" opacity="0.88"/>
  <text x="315" y="733" text-anchor="middle" font-size="32" font-weight="900" letter-spacing="0" fill="#ffffff" font-family="Malgun Gothic, Noto Sans KR, Arial, sans-serif">기준가 15만원</text>
  <line x1="94" y1="792" x2="536" y2="792" stroke="#0284c7" stroke-opacity="0.35" stroke-width="3"/>
  <text x="315" y="825" text-anchor="middle" font-size="24" font-weight="700" letter-spacing="0" fill="#475569" font-family="Malgun Gothic, Noto Sans KR, Arial, sans-serif">구매, 판매, 협상에 사용</text>
</svg>
