<?xml version="1.0" encoding="UTF-8"?>
<svg xmlns="http://www.w3.org/2000/svg" width="63mm" height="88mm" viewBox="0 0 630 880" role="img" aria-label="네고왕">
  <defs>
    <linearGradient id="bg" x1="0" y1="0" x2="1" y2="1">
      <stop offset="0%" stop-color="#111827"/>
      <stop offset="100%" stop-color="#312e81"/>
    </linearGradient>
    <filter id="softShadow" x="-20%" y="-20%" width="140%" height="140%">
      <feDropShadow dx="0" dy="8" stdDeviation="8" flood-color="#000000" flood-opacity="0.36"/>
    </filter>
  </defs>
  <rect x="0" y="0" width="630" height="880" rx="8" fill="url(#bg)"/>
  <rect x="14" y="14" width="602" height="852" rx="8" fill="none" stroke="#c7d2fe" stroke-opacity="0.52" stroke-width="3" stroke-dasharray="12 8"/>
  <rect x="34" y="34" width="562" height="812" rx="8" fill="#0f172a" fill-opacity="0.50" filter="url(#softShadow)"/>
  <path d="M70 170 C140 80, 255 86, 310 154 S500 98, 554 210 L554 34 L70 34 Z" fill="#4f46e5" opacity="0.22"/>
  <circle cx="315" cy="244" r="138" fill="#1e1b4b" fill-opacity="0.72"/>
  <circle cx="315" cy="244" r="116" fill="#4f46e5" opacity="0.28"/>
  <text x="315" y="285" text-anchor="middle" font-size="132" font-family="Apple Color Emoji, Segoe UI Emoji, Noto Color Emoji, sans-serif">💸</text>
  <text x="64" y="94" font-size="29" font-weight="800" letter-spacing="0" fill="#f97316" font-family="Malgun Gothic, Noto Sans KR, Arial, sans-serif">비밀 미션</text>
  <rect x="410" y="58" width="142" height="52" rx="8" fill="#f97316"/>
  <text x="481" y="93" text-anchor="middle" font-size="24" font-weight="800" letter-spacing="0" fill="#ffffff" font-family="Malgun Gothic, Noto Sans KR, Arial, sans-serif">빌런 전용</text>
  <text x="315" y="430" text-anchor="middle" font-size="50" font-weight="800" letter-spacing="0" fill="#f9fafb" font-family="Malgun Gothic, Noto Sans KR, Arial, sans-serif">네고왕</text>
  <text x="315" y="566" text-anchor="middle" font-size="32" font-weight="650" letter-spacing="0" fill="#c7d2fe" font-family="Malgun Gothic, Noto Sans KR, Arial, sans-serif">3번의 거래에서 원래 가격보다</text>
  <text x="315" y="606" text-anchor="middle" font-size="32" font-weight="650" letter-spacing="0" fill="#c7d2fe" font-family="Malgun Gothic, Noto Sans KR, Arial, sans-serif">30% 이상 깎아서 구매하기</text>
  <rect x="88" y="684" width="454" height="76" rx="8" fill="#f97316" opacity="0.92"/>
  <text x="315" y="733" text-anchor="middle" font-size="32" font-weight="900" letter-spacing="0" fill="#ffffff" font-family="Malgun Gothic, Noto Sans KR, Arial, sans-serif">정체를 숨기고 달성</text>
  <line x1="94" y1="792" x2="536" y2="792" stroke="#f97316" stroke-opacity="0.60" stroke-width="3"/>
  <text x="315" y="825" text-anchor="middle" font-size="24" font-weight="700" letter-spacing="0" fill="#c7d2fe" font-family="Malgun Gothic, Noto Sans KR, Arial, sans-serif">본인만 확인</text>
</svg>
